<svg xmlns="http://www.w3.org/2000/svg" xmlns:xlink="http://www.w3.org/1999/xlink" width="500" zoomAndPan="magnify" viewBox="0 0 375 374.999991" height="500" preserveAspectRatio="xMidYMid meet" version="1.0"><defs><g/><clipPath id="04ab7ee5be"><path d="M 22.707031 180.375 L 141.804688 180.375 L 141.804688 259.773438 L 22.707031 259.773438 Z M 22.707031 180.375 " clip-rule="nonzero"/></clipPath><clipPath id="f106136f2e"><path d="M 61 144 L 100 144 L 100 175.292969 L 61 175.292969 Z M 61 144 " clip-rule="nonzero"/></clipPath><clipPath id="4e8d253ca5"><path d="M 54.449219 133.609375 L 107.378906 133.609375 L 107.378906 149 L 54.449219 149 Z M 54.449219 133.609375 " clip-rule="nonzero"/></clipPath><clipPath id="29b1553661"><path d="M 76 166 L 86 166 L 86 175.292969 L 76 175.292969 Z M 76 166 " clip-rule="nonzero"/></clipPath></defs><path fill="#009bdf" d="M 139.027344 181.269531 L 80.628906 85.84375 L 26.515625 180.617188 C 13.917969 200.703125 12.816406 226.816406 26.054688 248.441406 C 44.867188 279.1875 85.40625 289.054688 116.609375 270.511719 C 147.800781 251.972656 157.839844 212.035156 139.027344 181.269531 Z M 139.027344 181.269531 " fill-opacity="1" fill-rule="nonzero"/><g clip-path="url(#04ab7ee5be)"><path fill="#0b589c" d="M 141.671875 189.785156 C 141.6875 189.71875 141.691406 189.652344 141.691406 189.585938 C 141.691406 188.777344 141.234375 187.921875 140.160156 187.15625 C 139.011719 186.34375 137.054688 185.546875 134.398438 184.832031 C 124.621094 182.199219 104.929688 180.386719 82.246094 180.386719 C 59.5625 180.386719 39.871094 182.199219 30.09375 184.832031 C 27.4375 185.546875 25.480469 186.34375 24.335938 187.15625 C 23.261719 187.921875 22.800781 188.777344 22.800781 189.585938 C 22.800781 189.652344 22.804688 189.71875 22.820312 189.785156 C 22.820312 189.785156 29.34375 223.003906 33.347656 243.398438 C 35.21875 252.921875 43.578125 259.792969 53.296875 259.792969 C 69.613281 259.792969 94.878906 259.792969 111.199219 259.792969 C 120.914062 259.792969 129.273438 252.921875 131.144531 243.398438 C 135.152344 223.003906 141.671875 189.785156 141.671875 189.785156 Z M 141.671875 189.785156 " fill-opacity="1" fill-rule="evenodd"/></g><path fill="#2898d4" d="M 33.632812 213.730469 L 36.230469 226.960938 C 36.339844 227.519531 36.882812 227.886719 37.441406 227.785156 C 42 226.941406 46.5 225.917969 50.871094 224.605469 C 58.667969 222.261719 65.773438 217.855469 73.285156 214.75 C 73.679688 214.585938 73.933594 214.203125 73.929688 213.777344 C 73.925781 213.351562 73.664062 212.972656 73.265625 212.816406 C 67.34375 210.492188 61.3125 208.476562 55.011719 207.246094 C 50.363281 206.335938 45.445312 205.84375 40.40625 205.707031 C 40.40625 205.707031 40.40625 205.707031 40.402344 205.707031 C 38.359375 205.660156 36.40625 206.539062 35.09375 208.097656 C 33.773438 209.65625 33.238281 211.730469 33.632812 213.730469 Z M 33.632812 213.730469 " fill-opacity="1" fill-rule="evenodd"/><path fill="#2898d4" d="M 37.0625 225.734375 C 36.789062 225.785156 36.546875 225.941406 36.390625 226.171875 C 36.234375 226.402344 36.175781 226.6875 36.230469 226.960938 L 39.230469 242.246094 C 40.550781 248.960938 46.445312 253.804688 53.296875 253.804688 L 111.199219 253.804688 C 118.050781 253.804688 123.941406 248.960938 125.261719 242.246094 C 125.261719 242.246094 127.765625 229.492188 129.03125 223.042969 C 129.542969 220.421875 128.066406 217.820312 125.554688 216.914062 C 125.554688 216.914062 125.554688 216.914062 125.550781 216.914062 C 120.386719 215.066406 115.144531 213.453125 109.792969 212.175781 C 100.464844 209.945312 90.441406 208.011719 80.890625 210.105469 C 70.128906 212.460938 60.832031 219.4375 50.269531 222.609375 C 45.96875 223.902344 41.546875 224.90625 37.0625 225.734375 Z M 37.0625 225.734375 " fill-opacity="1" fill-rule="evenodd"/><g clip-path="url(#f106136f2e)"><path fill="#0b589c" d="M 65.640625 155.710938 C 69.878906 151.605469 74.96875 149.40625 80.921875 149.40625 C 86.875 149.410156 91.960938 151.613281 96.171875 155.695312 C 97.417969 154.453125 98.652344 153.226562 99.886719 152 C 89.265625 141.277344 71.949219 141.75 61.929688 152.023438 C 63.160156 153.246094 64.390625 154.46875 65.640625 155.710938 Z M 73.054688 163.175781 C 75.253906 161.046875 77.859375 159.902344 80.914062 159.902344 C 83.976562 159.898438 86.589844 161.054688 88.71875 163.121094 C 89.976562 161.867188 91.210938 160.640625 92.445312 159.414062 C 85.726562 152.699219 75.199219 153.386719 69.351562 159.46875 C 69.371094 159.496094 69.390625 159.523438 69.414062 159.550781 C 70.621094 160.75 71.824219 161.949219 73.054688 163.175781 Z M 85.179688 171.035156 C 85.179688 168.699219 83.285156 166.808594 80.945312 166.808594 C 78.617188 166.808594 76.714844 168.695312 76.707031 171.015625 C 76.699219 173.347656 78.597656 175.25 80.9375 175.253906 C 83.285156 175.257812 85.179688 173.375 85.179688 171.035156 Z M 85.179688 171.035156 " fill-opacity="1" fill-rule="nonzero"/></g><g clip-path="url(#4e8d253ca5)"><path fill="#0b589c" d="M 107.382812 144.675781 C 107.308594 144.734375 107.226562 144.78125 107.160156 144.847656 C 106.066406 145.933594 104.976562 147.023438 103.886719 148.117188 C 103.816406 148.183594 103.769531 148.269531 103.710938 148.355469 C 97.324219 142.191406 89.769531 138.917969 80.914062 138.917969 C 72.066406 138.917969 64.519531 142.183594 58.160156 148.316406 C 58.101562 148.261719 58.03125 148.195312 57.964844 148.132812 C 56.867188 147.035156 55.769531 145.941406 54.667969 144.847656 C 54.605469 144.78125 54.523438 144.734375 54.449219 144.675781 C 54.449219 144.640625 54.449219 144.605469 54.449219 144.570312 C 54.515625 144.519531 54.589844 144.46875 54.648438 144.410156 C 55.980469 143.117188 57.382812 141.914062 58.882812 140.820312 C 62.84375 137.941406 67.203125 135.898438 71.964844 134.722656 C 74.046875 134.207031 76.15625 133.867188 78.300781 133.738281 C 78.722656 133.714844 79.144531 133.671875 79.5625 133.636719 C 80.464844 133.636719 81.363281 133.636719 82.265625 133.636719 C 82.324219 133.648438 82.386719 133.667969 82.445312 133.671875 C 83.535156 133.769531 84.628906 133.835938 85.714844 133.960938 C 87.933594 134.207031 90.101562 134.707031 92.230469 135.386719 C 97.789062 137.167969 102.667969 140.082031 106.871094 144.121094 C 107.035156 144.277344 107.210938 144.421875 107.382812 144.570312 C 107.382812 144.605469 107.382812 144.640625 107.382812 144.675781 Z M 107.382812 144.675781 " fill-opacity="1" fill-rule="nonzero"/></g><path fill="#0b589c" d="M 65.640625 155.710938 C 64.390625 154.46875 63.160156 153.246094 61.929688 152.023438 C 71.949219 141.75 89.265625 141.277344 99.886719 152 C 98.652344 153.226562 97.417969 154.453125 96.171875 155.695312 C 91.960938 151.613281 86.875 149.410156 80.921875 149.40625 C 74.96875 149.40625 69.878906 151.605469 65.640625 155.710938 Z M 65.640625 155.710938 " fill-opacity="1" fill-rule="nonzero"/><path fill="#0b589c" d="M 73.054688 163.175781 C 71.824219 161.949219 70.621094 160.75 69.414062 159.550781 C 69.390625 159.523438 69.371094 159.496094 69.351562 159.46875 C 75.199219 153.386719 85.726562 152.699219 92.445312 159.414062 C 91.210938 160.640625 89.976562 161.867188 88.71875 163.121094 C 86.589844 161.054688 83.976562 159.898438 80.914062 159.902344 C 77.859375 159.902344 75.253906 161.046875 73.054688 163.175781 Z M 73.054688 163.175781 " fill-opacity="1" fill-rule="nonzero"/><g clip-path="url(#29b1553661)"><path fill="#0b589c" d="M 85.179688 171.035156 C 85.179688 173.375 83.285156 175.257812 80.9375 175.253906 C 78.597656 175.25 76.699219 173.347656 76.707031 171.015625 C 76.714844 168.695312 78.617188 166.808594 80.945312 166.808594 C 83.285156 166.808594 85.179688 168.699219 85.179688 171.035156 Z M 85.179688 171.035156 " fill-opacity="1" fill-rule="nonzero"/></g><g fill="#009bdf" fill-opacity="1"><g transform="translate(148.614193, 263.667052)"><g><path d="M 7.328125 0 C 6.910156 0 6.578125 -0.113281 6.328125 -0.34375 C 6.085938 -0.582031 5.925781 -0.867188 5.84375 -1.203125 L 1.4375 -26.203125 C 1.414062 -26.253906 1.40625 -26.304688 1.40625 -26.359375 C 1.40625 -26.410156 1.40625 -26.453125 1.40625 -26.484375 C 1.40625 -26.691406 1.484375 -26.878906 1.640625 -27.046875 C 1.796875 -27.210938 1.988281 -27.296875 2.21875 -27.296875 L 6.359375 -27.296875 C 7.035156 -27.296875 7.410156 -27.023438 7.484375 -26.484375 L 10.375 -10.015625 L 13.53125 -20.234375 C 13.613281 -20.441406 13.742188 -20.660156 13.921875 -20.890625 C 14.109375 -21.128906 14.40625 -21.25 14.8125 -21.25 L 17.28125 -21.25 C 17.695312 -21.25 17.992188 -21.128906 18.171875 -20.890625 C 18.359375 -20.660156 18.488281 -20.441406 18.5625 -20.234375 L 21.71875 -10.0625 L 24.609375 -26.484375 C 24.679688 -27.023438 25.054688 -27.296875 25.734375 -27.296875 L 29.875 -27.296875 C 30.101562 -27.296875 30.296875 -27.210938 30.453125 -27.046875 C 30.609375 -26.878906 30.6875 -26.691406 30.6875 -26.484375 C 30.6875 -26.453125 30.6875 -26.410156 30.6875 -26.359375 C 30.6875 -26.304688 30.675781 -26.253906 30.65625 -26.203125 L 26.25 -1.203125 C 26.195312 -0.867188 26.046875 -0.582031 25.796875 -0.34375 C 25.546875 -0.113281 25.203125 0 24.765625 0 L 21.609375 0 C 21.191406 0 20.867188 -0.109375 20.640625 -0.328125 C 20.421875 -0.546875 20.273438 -0.773438 20.203125 -1.015625 L 16.0625 -13.109375 L 11.890625 -1.015625 C 11.816406 -0.773438 11.664062 -0.546875 11.4375 -0.328125 C 11.21875 -0.109375 10.898438 0 10.484375 0 Z M 7.328125 0 "/></g></g></g><g fill="#009bdf" fill-opacity="1"><g transform="translate(180.711218, 263.667052)"><g><path d="M 8.421875 0.390625 C 7.046875 0.390625 5.8125 0.125 4.71875 -0.40625 C 3.625 -0.9375 2.75 -1.65625 2.09375 -2.5625 C 1.445312 -3.476562 1.125 -4.492188 1.125 -5.609375 C 1.125 -7.460938 1.867188 -8.921875 3.359375 -9.984375 C 4.859375 -11.046875 6.832031 -11.773438 9.28125 -12.171875 L 14.390625 -12.90625 L 14.390625 -13.609375 C 14.390625 -14.617188 14.15625 -15.394531 13.6875 -15.9375 C 13.21875 -16.488281 12.398438 -16.765625 11.234375 -16.765625 C 10.367188 -16.765625 9.679688 -16.59375 9.171875 -16.25 C 8.671875 -15.914062 8.28125 -15.476562 8 -14.9375 C 7.789062 -14.601562 7.476562 -14.4375 7.0625 -14.4375 L 3.359375 -14.4375 C 3.066406 -14.4375 2.84375 -14.519531 2.6875 -14.6875 C 2.53125 -14.851562 2.46875 -15.050781 2.5 -15.28125 C 2.5 -15.726562 2.664062 -16.25 3 -16.84375 C 3.34375 -17.445312 3.863281 -18.039062 4.5625 -18.625 C 5.257812 -19.207031 6.160156 -19.691406 7.265625 -20.078125 C 8.378906 -20.472656 9.710938 -20.671875 11.265625 -20.671875 C 12.910156 -20.671875 14.316406 -20.472656 15.484375 -20.078125 C 16.648438 -19.691406 17.59375 -19.144531 18.3125 -18.4375 C 19.03125 -17.738281 19.550781 -16.925781 19.875 -16 C 20.195312 -15.082031 20.359375 -14.09375 20.359375 -13.03125 L 20.359375 -0.96875 C 20.359375 -0.6875 20.265625 -0.453125 20.078125 -0.265625 C 19.898438 -0.0859375 19.679688 0 19.421875 0 L 15.5625 0 C 15.300781 0 15.078125 -0.0859375 14.890625 -0.265625 C 14.710938 -0.453125 14.625 -0.6875 14.625 -0.96875 L 14.625 -2.421875 C 14.289062 -1.921875 13.835938 -1.457031 13.265625 -1.03125 C 12.691406 -0.601562 12.003906 -0.257812 11.203125 0 C 10.410156 0.257812 9.484375 0.390625 8.421875 0.390625 Z M 9.984375 -3.671875 C 10.835938 -3.671875 11.601562 -3.851562 12.28125 -4.21875 C 12.957031 -4.582031 13.488281 -5.140625 13.875 -5.890625 C 14.269531 -6.640625 14.46875 -7.585938 14.46875 -8.734375 L 14.46875 -9.40625 L 10.84375 -8.8125 C 9.46875 -8.582031 8.453125 -8.234375 7.796875 -7.765625 C 7.148438 -7.296875 6.828125 -6.722656 6.828125 -6.046875 C 6.828125 -5.546875 6.972656 -5.117188 7.265625 -4.765625 C 7.566406 -4.421875 7.957031 -4.148438 8.4375 -3.953125 C 8.925781 -3.765625 9.441406 -3.671875 9.984375 -3.671875 Z M 9.984375 -3.671875 "/></g></g></g><g fill="#009bdf" fill-opacity="1"><g transform="translate(203.331242, 263.667052)"><g><path d="M 12.203125 0 C 10.585938 0 9.210938 -0.265625 8.078125 -0.796875 C 6.953125 -1.328125 6.09375 -2.148438 5.5 -3.265625 C 4.90625 -4.390625 4.609375 -5.796875 4.609375 -7.484375 L 4.609375 -15.671875 L 1.5625 -15.671875 C 1.269531 -15.671875 1.03125 -15.757812 0.84375 -15.9375 C 0.664062 -16.125 0.578125 -16.347656 0.578125 -16.609375 L 0.578125 -19.3125 C 0.578125 -19.59375 0.664062 -19.820312 0.84375 -20 C 1.03125 -20.1875 1.269531 -20.28125 1.5625 -20.28125 L 4.609375 -20.28125 L 4.609375 -26.71875 C 4.609375 -27 4.703125 -27.226562 4.890625 -27.40625 C 5.085938 -27.59375 5.316406 -27.6875 5.578125 -27.6875 L 9.4375 -27.6875 C 9.695312 -27.6875 9.914062 -27.59375 10.09375 -27.40625 C 10.28125 -27.226562 10.375 -27 10.375 -26.71875 L 10.375 -20.28125 L 15.25 -20.28125 C 15.53125 -20.28125 15.757812 -20.1875 15.9375 -20 C 16.125 -19.820312 16.21875 -19.59375 16.21875 -19.3125 L 16.21875 -16.609375 C 16.21875 -16.347656 16.125 -16.125 15.9375 -15.9375 C 15.757812 -15.757812 15.53125 -15.671875 15.25 -15.671875 L 10.375 -15.671875 L 10.375 -7.953125 C 10.375 -6.960938 10.554688 -6.1875 10.921875 -5.625 C 11.285156 -5.070312 11.894531 -4.796875 12.75 -4.796875 L 15.59375 -4.796875 C 15.882812 -4.796875 16.117188 -4.703125 16.296875 -4.515625 C 16.484375 -4.335938 16.578125 -4.117188 16.578125 -3.859375 L 16.578125 -0.96875 C 16.578125 -0.6875 16.484375 -0.453125 16.296875 -0.265625 C 16.117188 -0.0859375 15.882812 0 15.59375 0 Z M 12.203125 0 "/></g></g></g><g fill="#009bdf" fill-opacity="1"><g transform="translate(220.803257, 263.667052)"><g><path d="M 11.5 0.390625 C 8.507812 0.390625 6.132812 -0.441406 4.375 -2.109375 C 2.625 -3.773438 1.695312 -6.191406 1.59375 -9.359375 C 1.59375 -9.566406 1.59375 -9.84375 1.59375 -10.1875 C 1.59375 -10.539062 1.59375 -10.8125 1.59375 -11 C 1.695312 -13.03125 2.148438 -14.765625 2.953125 -16.203125 C 3.765625 -17.648438 4.898438 -18.753906 6.359375 -19.515625 C 7.816406 -20.285156 9.519531 -20.671875 11.46875 -20.671875 C 13.675781 -20.671875 15.507812 -20.222656 16.96875 -19.328125 C 18.425781 -18.429688 19.523438 -17.207031 20.265625 -15.65625 C 21.003906 -14.113281 21.375 -12.335938 21.375 -10.328125 L 21.375 -9.4375 C 21.375 -9.175781 21.28125 -8.945312 21.09375 -8.75 C 20.914062 -8.5625 20.679688 -8.46875 20.390625 -8.46875 L 7.6875 -8.46875 C 7.6875 -8.46875 7.6875 -8.429688 7.6875 -8.359375 C 7.6875 -8.296875 7.6875 -8.238281 7.6875 -8.1875 C 7.707031 -7.351562 7.859375 -6.59375 8.140625 -5.90625 C 8.429688 -5.21875 8.851562 -4.664062 9.40625 -4.25 C 9.96875 -3.832031 10.65625 -3.625 11.46875 -3.625 C 12.09375 -3.625 12.613281 -3.722656 13.03125 -3.921875 C 13.445312 -4.117188 13.789062 -4.335938 14.0625 -4.578125 C 14.332031 -4.828125 14.53125 -5.039062 14.65625 -5.21875 C 14.894531 -5.507812 15.082031 -5.6875 15.21875 -5.75 C 15.363281 -5.8125 15.582031 -5.84375 15.875 -5.84375 L 20 -5.84375 C 20.238281 -5.84375 20.441406 -5.765625 20.609375 -5.609375 C 20.773438 -5.453125 20.847656 -5.257812 20.828125 -5.03125 C 20.796875 -4.59375 20.578125 -4.066406 20.171875 -3.453125 C 19.773438 -2.835938 19.1875 -2.238281 18.40625 -1.65625 C 17.625 -1.070312 16.65625 -0.582031 15.5 -0.1875 C 14.34375 0.195312 13.007812 0.390625 11.5 0.390625 Z M 7.6875 -12.046875 L 15.28125 -12.046875 L 15.28125 -12.171875 C 15.28125 -13.078125 15.128906 -13.875 14.828125 -14.5625 C 14.535156 -15.25 14.101562 -15.785156 13.53125 -16.171875 C 12.957031 -16.566406 12.269531 -16.765625 11.46875 -16.765625 C 10.65625 -16.765625 9.96875 -16.566406 9.40625 -16.171875 C 8.851562 -15.785156 8.425781 -15.25 8.125 -14.5625 C 7.832031 -13.875 7.6875 -13.078125 7.6875 -12.171875 Z M 7.6875 -12.046875 "/></g></g></g><g fill="#009bdf" fill-opacity="1"><g transform="translate(243.657278, 263.667052)"><g><path d="M 3.390625 0 C 3.128906 0 2.898438 -0.0859375 2.703125 -0.265625 C 2.515625 -0.453125 2.421875 -0.6875 2.421875 -0.96875 L 2.421875 -19.3125 C 2.421875 -19.5625 2.515625 -19.785156 2.703125 -19.984375 C 2.898438 -20.179688 3.128906 -20.28125 3.390625 -20.28125 L 7.21875 -20.28125 C 7.5 -20.28125 7.726562 -20.179688 7.90625 -19.984375 C 8.09375 -19.785156 8.1875 -19.5625 8.1875 -19.3125 L 8.1875 -17.75 C 8.84375 -18.550781 9.648438 -19.171875 10.609375 -19.609375 C 11.566406 -20.054688 12.660156 -20.28125 13.890625 -20.28125 L 15.5625 -20.28125 C 15.84375 -20.28125 16.070312 -20.1875 16.25 -20 C 16.4375 -19.820312 16.53125 -19.59375 16.53125 -19.3125 L 16.53125 -15.90625 C 16.53125 -15.644531 16.4375 -15.421875 16.25 -15.234375 C 16.070312 -15.054688 15.84375 -14.96875 15.5625 -14.96875 L 12.171875 -14.96875 C 10.992188 -14.96875 10.085938 -14.644531 9.453125 -14 C 8.816406 -13.351562 8.5 -12.457031 8.5 -11.3125 L 8.5 -0.96875 C 8.5 -0.6875 8.398438 -0.453125 8.203125 -0.265625 C 8.015625 -0.0859375 7.789062 0 7.53125 0 Z M 3.390625 0 "/></g></g></g><g fill="#009bdf" fill-opacity="1"><g transform="translate(260.661298, 263.667052)"><g><path d="M 10.765625 0 C 10.347656 0 10.007812 -0.109375 9.75 -0.328125 C 9.488281 -0.546875 9.304688 -0.8125 9.203125 -1.125 L 1.046875 -26.125 C 1.023438 -26.257812 1.015625 -26.378906 1.015625 -26.484375 C 1.015625 -26.691406 1.09375 -26.878906 1.25 -27.046875 C 1.40625 -27.210938 1.597656 -27.296875 1.828125 -27.296875 L 5.96875 -27.296875 C 6.351562 -27.296875 6.65625 -27.1875 6.875 -26.96875 C 7.101562 -26.75 7.242188 -26.546875 7.296875 -26.359375 L 13.34375 -7.296875 L 19.390625 -26.359375 C 19.441406 -26.546875 19.566406 -26.75 19.765625 -26.96875 C 19.972656 -27.1875 20.285156 -27.296875 20.703125 -27.296875 L 24.84375 -27.296875 C 25.050781 -27.296875 25.238281 -27.210938 25.40625 -27.046875 C 25.570312 -26.878906 25.65625 -26.691406 25.65625 -26.484375 C 25.65625 -26.378906 25.628906 -26.257812 25.578125 -26.125 L 17.4375 -1.125 C 17.332031 -0.8125 17.15625 -0.546875 16.90625 -0.328125 C 16.65625 -0.109375 16.3125 0 15.875 0 Z M 10.765625 0 "/></g></g></g><g fill="#009bdf" fill-opacity="1"><g transform="translate(287.298324, 263.667052)"><g><path d="M 3.390625 0 C 3.128906 0 2.898438 -0.0859375 2.703125 -0.265625 C 2.515625 -0.453125 2.421875 -0.6875 2.421875 -0.96875 L 2.421875 -19.3125 C 2.421875 -19.59375 2.515625 -19.820312 2.703125 -20 C 2.898438 -20.1875 3.128906 -20.28125 3.390625 -20.28125 L 7.328125 -20.28125 C 7.585938 -20.28125 7.804688 -20.1875 7.984375 -20 C 8.171875 -19.820312 8.265625 -19.59375 8.265625 -19.3125 L 8.265625 -0.96875 C 8.265625 -0.6875 8.171875 -0.453125 7.984375 -0.265625 C 7.804688 -0.0859375 7.585938 0 7.328125 0 Z M 3.28125 -23.40625 C 3.019531 -23.40625 2.796875 -23.492188 2.609375 -23.671875 C 2.429688 -23.859375 2.34375 -24.09375 2.34375 -24.375 L 2.34375 -27.53125 C 2.34375 -27.789062 2.429688 -28.019531 2.609375 -28.21875 C 2.796875 -28.414062 3.019531 -28.515625 3.28125 -28.515625 L 7.40625 -28.515625 C 7.664062 -28.515625 7.894531 -28.414062 8.09375 -28.21875 C 8.289062 -28.019531 8.390625 -27.789062 8.390625 -27.53125 L 8.390625 -24.375 C 8.390625 -24.09375 8.289062 -23.859375 8.09375 -23.671875 C 7.894531 -23.492188 7.664062 -23.40625 7.40625 -23.40625 Z M 3.28125 -23.40625 "/></g></g></g><g fill="#009bdf" fill-opacity="1"><g transform="translate(298.023337, 263.667052)"><g><path d="M 11.5 0.390625 C 8.507812 0.390625 6.132812 -0.441406 4.375 -2.109375 C 2.625 -3.773438 1.695312 -6.191406 1.59375 -9.359375 C 1.59375 -9.566406 1.59375 -9.84375 1.59375 -10.1875 C 1.59375 -10.539062 1.59375 -10.8125 1.59375 -11 C 1.695312 -13.03125 2.148438 -14.765625 2.953125 -16.203125 C 3.765625 -17.648438 4.898438 -18.753906 6.359375 -19.515625 C 7.816406 -20.285156 9.519531 -20.671875 11.46875 -20.671875 C 13.675781 -20.671875 15.507812 -20.222656 16.96875 -19.328125 C 18.425781 -18.429688 19.523438 -17.207031 20.265625 -15.65625 C 21.003906 -14.113281 21.375 -12.335938 21.375 -10.328125 L 21.375 -9.4375 C 21.375 -9.175781 21.28125 -8.945312 21.09375 -8.75 C 20.914062 -8.5625 20.679688 -8.46875 20.390625 -8.46875 L 7.6875 -8.46875 C 7.6875 -8.46875 7.6875 -8.429688 7.6875 -8.359375 C 7.6875 -8.296875 7.6875 -8.238281 7.6875 -8.1875 C 7.707031 -7.351562 7.859375 -6.59375 8.140625 -5.90625 C 8.429688 -5.21875 8.851562 -4.664062 9.40625 -4.25 C 9.96875 -3.832031 10.65625 -3.625 11.46875 -3.625 C 12.09375 -3.625 12.613281 -3.722656 13.03125 -3.921875 C 13.445312 -4.117188 13.789062 -4.335938 14.0625 -4.578125 C 14.332031 -4.828125 14.53125 -5.039062 14.65625 -5.21875 C 14.894531 -5.507812 15.082031 -5.6875 15.21875 -5.75 C 15.363281 -5.8125 15.582031 -5.84375 15.875 -5.84375 L 20 -5.84375 C 20.238281 -5.84375 20.441406 -5.765625 20.609375 -5.609375 C 20.773438 -5.453125 20.847656 -5.257812 20.828125 -5.03125 C 20.796875 -4.59375 20.578125 -4.066406 20.171875 -3.453125 C 19.773438 -2.835938 19.1875 -2.238281 18.40625 -1.65625 C 17.625 -1.070312 16.65625 -0.582031 15.5 -0.1875 C 14.34375 0.195312 13.007812 0.390625 11.5 0.390625 Z M 7.6875 -12.046875 L 15.28125 -12.046875 L 15.28125 -12.171875 C 15.28125 -13.078125 15.128906 -13.875 14.828125 -14.5625 C 14.535156 -15.25 14.101562 -15.785156 13.53125 -16.171875 C 12.957031 -16.566406 12.269531 -16.765625 11.46875 -16.765625 C 10.65625 -16.765625 9.96875 -16.566406 9.40625 -16.171875 C 8.851562 -15.785156 8.425781 -15.25 8.125 -14.5625 C 7.832031 -13.875 7.6875 -13.078125 7.6875 -12.171875 Z M 7.6875 -12.046875 "/></g></g></g><g fill="#009bdf" fill-opacity="1"><g transform="translate(320.877359, 263.667052)"><g><path d="M 8.03125 0 C 7.664062 0 7.382812 -0.0859375 7.1875 -0.265625 C 7 -0.453125 6.851562 -0.6875 6.75 -0.96875 L 1.171875 -19.03125 C 1.117188 -19.164062 1.09375 -19.296875 1.09375 -19.421875 C 1.09375 -19.648438 1.175781 -19.847656 1.34375 -20.015625 C 1.507812 -20.191406 1.710938 -20.28125 1.953125 -20.28125 L 5.421875 -20.28125 C 5.734375 -20.28125 5.976562 -20.1875 6.15625 -20 C 6.34375 -19.820312 6.460938 -19.65625 6.515625 -19.5 L 10.0625 -7.484375 L 13.84375 -19.421875 C 13.894531 -19.597656 14.019531 -19.785156 14.21875 -19.984375 C 14.414062 -20.179688 14.691406 -20.28125 15.046875 -20.28125 L 17.28125 -20.28125 C 17.644531 -20.28125 17.921875 -20.179688 18.109375 -19.984375 C 18.304688 -19.785156 18.429688 -19.597656 18.484375 -19.421875 L 22.265625 -7.484375 L 25.8125 -19.5 C 25.84375 -19.65625 25.945312 -19.820312 26.125 -20 C 26.3125 -20.1875 26.570312 -20.28125 26.90625 -20.28125 L 30.375 -20.28125 C 30.613281 -20.28125 30.816406 -20.191406 30.984375 -20.015625 C 31.148438 -19.847656 31.234375 -19.648438 31.234375 -19.421875 C 31.234375 -19.296875 31.207031 -19.164062 31.15625 -19.03125 L 25.578125 -0.96875 C 25.472656 -0.6875 25.328125 -0.453125 25.140625 -0.265625 C 24.960938 -0.0859375 24.679688 0 24.296875 0 L 21.296875 0 C 20.929688 0 20.644531 -0.0859375 20.4375 -0.265625 C 20.226562 -0.453125 20.070312 -0.6875 19.96875 -0.96875 L 16.1875 -12.484375 L 12.359375 -0.96875 C 12.253906 -0.6875 12.101562 -0.453125 11.90625 -0.265625 C 11.71875 -0.0859375 11.425781 0 11.03125 0 Z M 8.03125 0 "/></g></g></g></svg>