<svg xmlns="http://www.w3.org/2000/svg" xmlns:xlink="http://www.w3.org/1999/xlink" width="500" zoomAndPan="magnify" viewBox="0 0 375 374.999991" height="500" preserveAspectRatio="xMidYMid meet" version="1.0"><defs><clipPath id="f69d6d71ff"><path d="M 93.453125 176.773438 L 272.746094 176.773438 L 272.746094 296.300781 L 93.453125 296.300781 Z M 93.453125 176.773438 " clip-rule="nonzero"/></clipPath><clipPath id="259fe7d318"><path d="M 152 122 L 210 122 L 210 169.121094 L 152 169.121094 Z M 152 122 " clip-rule="nonzero"/></clipPath><clipPath id="b6609cccde"><path d="M 141.238281 106.371094 L 220.921875 106.371094 L 220.921875 129 L 141.238281 129 Z M 141.238281 106.371094 " clip-rule="nonzero"/></clipPath><clipPath id="ae5ce08343"><path d="M 174 156 L 188 156 L 188 169.121094 L 174 169.121094 Z M 174 156 " clip-rule="nonzero"/></clipPath></defs><path fill="#009bdf" d="M 268.5625 178.121094 L 180.652344 34.464844 L 99.191406 177.140625 C 80.222656 207.375 78.570312 246.683594 98.492188 279.246094 C 126.816406 325.523438 187.84375 340.382812 234.816406 312.464844 C 281.773438 284.558594 296.886719 224.4375 268.5625 178.121094 Z M 268.5625 178.121094 " fill-opacity="1" fill-rule="nonzero"/><g clip-path="url(#f69d6d71ff)"><path fill="#0b589c" d="M 272.546875 190.941406 C 272.566406 190.839844 272.578125 190.742188 272.578125 190.636719 C 272.578125 189.421875 271.886719 188.132812 270.269531 186.984375 C 268.542969 185.757812 265.597656 184.5625 261.597656 183.484375 C 246.878906 179.519531 217.234375 176.789062 183.085938 176.789062 C 148.941406 176.789062 119.292969 179.519531 104.578125 183.484375 C 100.574219 184.5625 97.632812 185.757812 95.90625 186.984375 C 94.289062 188.132812 93.597656 189.421875 93.597656 190.636719 C 93.597656 190.742188 93.605469 190.839844 93.625 190.941406 C 93.625 190.941406 103.445312 240.945312 109.476562 271.648438 C 112.289062 285.988281 124.875 296.332031 139.503906 296.332031 C 164.070312 296.332031 202.105469 296.332031 226.671875 296.332031 C 241.300781 296.332031 253.882812 285.988281 256.699219 271.648438 C 262.730469 240.945312 272.546875 190.941406 272.546875 190.941406 Z M 272.546875 190.941406 " fill-opacity="1" fill-rule="evenodd"/></g><path fill="#2898d4" d="M 109.902344 226.988281 L 113.8125 246.902344 C 113.980469 247.746094 114.792969 248.300781 115.640625 248.144531 C 122.503906 246.878906 129.273438 245.335938 135.851562 243.359375 C 147.589844 239.832031 158.289062 233.195312 169.597656 228.519531 C 170.1875 228.277344 170.570312 227.695312 170.566406 227.058594 C 170.558594 226.417969 170.167969 225.847656 169.570312 225.613281 C 160.652344 222.113281 151.574219 219.078125 142.089844 217.222656 C 135.089844 215.855469 127.683594 215.117188 120.101562 214.910156 C 120.101562 214.910156 120.097656 214.910156 120.097656 214.910156 C 117.023438 214.835938 114.082031 216.160156 112.101562 218.507812 C 110.117188 220.855469 109.3125 223.976562 109.902344 226.988281 Z M 109.902344 226.988281 " fill-opacity="1" fill-rule="evenodd"/><path fill="#2898d4" d="M 115.070312 245.058594 C 114.65625 245.136719 114.292969 245.371094 114.054688 245.71875 C 113.820312 246.066406 113.734375 246.492188 113.8125 246.902344 L 118.332031 269.914062 C 120.316406 280.023438 129.191406 287.316406 139.503906 287.316406 L 226.671875 287.316406 C 236.984375 287.316406 245.855469 280.023438 247.839844 269.914062 C 247.839844 269.914062 251.609375 250.71875 253.515625 241.007812 C 254.289062 237.0625 252.066406 233.144531 248.28125 231.78125 C 240.507812 228.996094 232.609375 226.566406 224.558594 224.644531 C 210.511719 221.292969 195.425781 218.378906 181.042969 221.527344 C 164.847656 225.074219 150.851562 235.578125 134.949219 240.355469 C 128.476562 242.300781 121.816406 243.8125 115.070312 245.058594 Z M 115.070312 245.058594 " fill-opacity="1" fill-rule="evenodd"/><g clip-path="url(#259fe7d318)"><path fill="#0b589c" d="M 158.089844 139.644531 C 164.46875 133.464844 172.132812 130.152344 181.09375 130.15625 C 190.054688 130.15625 197.710938 133.476562 204.050781 139.617188 C 205.925781 137.753906 207.785156 135.90625 209.644531 134.058594 C 193.65625 117.917969 167.585938 118.628906 152.503906 134.09375 C 154.355469 135.933594 156.207031 137.773438 158.089844 139.644531 Z M 169.253906 150.878906 C 172.5625 147.679688 176.484375 145.953125 181.082031 145.953125 C 185.691406 145.949219 189.625 147.6875 192.832031 150.796875 C 194.726562 148.914062 196.585938 147.066406 198.441406 145.21875 C 188.328125 135.109375 172.476562 136.148438 163.671875 145.304688 C 163.707031 145.34375 163.734375 145.386719 163.769531 145.421875 C 165.585938 147.226562 167.398438 149.035156 169.253906 150.878906 Z M 187.503906 162.714844 C 187.503906 159.195312 184.652344 156.347656 181.125 156.351562 C 177.621094 156.351562 174.761719 159.195312 174.746094 162.683594 C 174.734375 166.195312 177.59375 169.058594 181.113281 169.066406 C 184.648438 169.074219 187.5 166.238281 187.503906 162.714844 Z M 187.503906 162.714844 " fill-opacity="1" fill-rule="nonzero"/></g><g clip-path="url(#b6609cccde)"><path fill="#0b589c" d="M 220.925781 123.03125 C 220.816406 123.117188 220.691406 123.191406 220.59375 123.289062 C 218.949219 124.925781 217.304688 126.566406 215.664062 128.210938 C 215.5625 128.3125 215.488281 128.445312 215.398438 128.570312 C 205.785156 119.289062 194.414062 114.363281 181.082031 114.363281 C 167.765625 114.363281 156.402344 119.28125 146.828125 128.515625 C 146.738281 128.429688 146.632812 128.332031 146.535156 128.234375 C 144.882812 126.585938 143.230469 124.9375 141.574219 123.289062 C 141.472656 123.191406 141.351562 123.117188 141.238281 123.03125 C 141.238281 122.980469 141.238281 122.925781 141.238281 122.875 C 141.339844 122.792969 141.453125 122.722656 141.542969 122.632812 C 143.542969 120.6875 145.65625 118.875 147.914062 117.230469 C 153.878906 112.890625 160.4375 109.816406 167.609375 108.046875 C 170.742188 107.273438 173.921875 106.757812 177.148438 106.566406 C 177.78125 106.53125 178.414062 106.46875 179.050781 106.414062 C 180.40625 106.414062 181.761719 106.414062 183.117188 106.414062 C 183.207031 106.433594 183.296875 106.460938 183.386719 106.46875 C 185.027344 106.613281 186.671875 106.714844 188.304688 106.898438 C 191.648438 107.273438 194.914062 108.023438 198.117188 109.046875 C 206.484375 111.726562 213.828125 116.117188 220.160156 122.195312 C 220.402344 122.433594 220.671875 122.648438 220.925781 122.875 C 220.925781 122.925781 220.925781 122.980469 220.925781 123.03125 Z M 220.925781 123.03125 " fill-opacity="1" fill-rule="nonzero"/></g><path fill="#0b589c" d="M 158.089844 139.644531 C 156.207031 137.773438 154.355469 135.933594 152.503906 134.09375 C 167.585938 118.628906 193.65625 117.917969 209.644531 134.058594 C 207.785156 135.90625 205.925781 137.753906 204.050781 139.617188 C 197.710938 133.476562 190.054688 130.15625 181.09375 130.15625 C 172.132812 130.152344 164.46875 133.464844 158.089844 139.644531 Z M 158.089844 139.644531 " fill-opacity="1" fill-rule="nonzero"/><path fill="#0b589c" d="M 169.253906 150.878906 C 167.398438 149.035156 165.585938 147.226562 163.769531 145.421875 C 163.734375 145.386719 163.707031 145.34375 163.671875 145.304688 C 172.480469 136.148438 188.328125 135.109375 198.441406 145.21875 C 196.585938 147.066406 194.726562 148.914062 192.832031 150.796875 C 189.625 147.6875 185.691406 145.949219 181.082031 145.953125 C 176.484375 145.953125 172.5625 147.679688 169.253906 150.878906 Z M 169.253906 150.878906 " fill-opacity="1" fill-rule="nonzero"/><g clip-path="url(#ae5ce08343)"><path fill="#0b589c" d="M 187.503906 162.714844 C 187.5 166.238281 184.652344 169.074219 181.113281 169.066406 C 177.59375 169.058594 174.734375 166.195312 174.746094 162.683594 C 174.761719 159.195312 177.621094 156.351562 181.125 156.351562 C 184.652344 156.347656 187.503906 159.195312 187.503906 162.714844 Z M 187.503906 162.714844 " fill-opacity="1" fill-rule="nonzero"/></g></svg>