<svg xmlns="http://www.w3.org/2000/svg" viewBox="0 0 1440 320"><path fill="#0099ff" fill-opacity="1" d="M0,288L24,250.7C48,213,96,139,144,133.3C192,128,240,192,288,186.7C336,181,384,107,432,117.3C480,128,528,224,576,245.3C624,267,672,213,720,197.3C768,181,816,203,864,186.7C912,171,960,117,1008,128C1056,139,1104,213,1152,234.7C1200,256,1248,224,1296,192C1344,160,1392,128,1416,112L1440,96L1440,320L1416,320C1392,320,1344,320,1296,320C1248,320,1200,320,1152,320C1104,320,1056,320,1008,320C960,320,912,320,864,320C816,320,768,320,720,320C672,320,624,320,576,320C528,320,480,320,432,320C384,320,336,320,288,320C240,320,192,320,144,320C96,320,48,320,24,320L0,320Z"></path></svg>